<svg id="Layer_1" data-name="Layer 1" xmlns="http://www.w3.org/2000/svg" viewBox="0 0 122.88 61.81"><title>peoples-group</title><path d="M16.23,38.73c-.88-1.41-2.53-3.31-2.53-5a2.65,2.65,0,0,1,1.78-2.41c-.09-1.39-.14-2.8-.14-4.2,0-.83,0-1.66.05-2.48a8,8,0,0,1,.28-1.54,8.82,8.82,0,0,1,3.94-5,11.35,11.35,0,0,1,2.14-1c1.36-.5.7-2.78,2.19-2.81,3.47-.09,9.18,3.09,11.4,5.5a8.83,8.83,0,0,1,2.28,5.71l-.14,6.08a2,2,0,0,1,1.46,1.25c.47,1.92-1.52,4.31-2.44,5.84s-4.12,6-4.13,6a1.26,1.26,0,0,0,.3.71,10.26,10.26,0,0,0,4.57,3.29c6.12-2.71,14-3.06,17.81-8.24.32-.48.47-.73.47-.94s-4.88-7-5.32-7.72c-1.15-1.83-3.3-4.31-3.3-6.45a3.44,3.44,0,0,1,2.32-3.13c-.11-1.81-.18-3.65-.18-5.47,0-1.08,0-2.16.06-3.23a11.18,11.18,0,0,1,.36-2A11.51,11.51,0,0,1,54.6,5a14.8,14.8,0,0,1,2.78-1.33C59.14,3,58.29,0,60.22,0c4.52-.11,12,4,14.85,7.16a11.53,11.53,0,0,1,3,7.42l-.19,7.92a2.58,2.58,0,0,1,1.9,1.62c.62,2.5-2,5.61-3.18,7.59s-5.35,7.77-5.36,7.81a1.58,1.58,0,0,0,.38.92c3.21,4.41,9.44,5.32,15,7.17,3.47-1.2,6.57-1.79,6.78-3.91l.17-1.77c-6.71-.09-12.21-.42-12.38-.87,6.41-3.6,5.48-9.82,6.44-15.29.65-3.71,2.18-7.07,7.44-9,6.44-2.39,14.75.83,15.66,9.36,0,5.79,2.37,12.69,7.37,15-.1.26-6,.64-13,.81a7.2,7.2,0,0,0,.28,1.67c1.08,3.38,10.71,3.44,14.93,9,1.94,2.56,2.67,2.18,2.67,8.52a.7.7,0,0,1-.63.76H0C0,48,14.89,52.35,20,45.39a1.58,1.58,0,0,0,.36-.73c0-.09-3.75-5.4-4.09-5.93Z"/></svg>